<svg width="1170" height="588" viewBox="0 0 1170 588" fill="none" xmlns="http://www.w3.org/2000/svg">
<path d="M-318.673 434.1C-323.852 415.1 -329.974 356.085 -334.342 264.226C-336.368 221.632 -333.532 187.049 -328.326 157.162C-323.12 127.275 -314.487 103.093 -296.228 79.8401C-277.968 56.5874 -250.343 34.9965 -224.458 17.8285C-198.573 0.660532 -175.264 -11.4303 -134.337 -21.1135C-93.4098 -30.7967 -35.5703 -37.7058 3.72183 -37.3787C43.014 -37.0515 62.006 -29.2788 80.4226 -17.502C98.8392 -5.72513 116.105 9.82029 133.632 39.8512C151.159 69.8822 168.425 113.928 183.362 169.867C198.299 225.807 210.385 292.307 215.748 339.519C224.011 412.263 213.289 450.562 202.864 473.618C191.471 498.817 159.399 520.359 112.024 536.494C87.0031 545.015 56.8788 543.128 27.0826 534.073C-2.71348 525.018 -32.0649 506.018 -53.2282 483.707C-93.0475 441.729 -101.519 391.547 -103.717 352.827C-104.834 333.135 -99.8714 313.244 -81.2586 277.966C-62.6458 242.688 -28.978 192.597 -3.00122 160.747C35.9653 112.971 78.7484 99.1672 115.752 91.7478C131.869 88.5163 143.259 90.3738 154.22 93.4096C165.181 96.4455 175.54 101.627 198.574 125.024C221.608 148.421 257.002 189.875 290.774 238.867C324.547 287.858 355.625 343.131 380.267 380.241C418.249 437.438 453.777 469.693 481.179 502.341C506.136 532.075 538.326 552.654 571.392 568.33C600.34 582.054 627.321 586.754 666.352 585.904C734.983 584.408 788.649 569.377 809.538 555.467C830.018 541.83 841.022 507.588 850.609 465.819C860.005 424.884 849.864 376.787 835.528 325.008C828.279 298.826 816.876 274.092 803.77 248.236C777.021 195.464 740.986 154.23 708.339 127.222C684.509 107.509 663.291 98.2774 644.587 93.0433C635.555 90.5158 626.746 91.2636 620.572 95.15C607.778 103.204 614.294 141.59 630.369 191.655C644.723 236.36 678.726 268.204 716.095 298.222C759.293 332.921 806.02 353.756 847.732 368.137C897.588 385.326 946.42 373.096 988.55 345.368C1016.11 327.232 1045.36 286.55 1069.15 250.146C1092.94 213.743 1107.62 179.197 1120.36 142.833C1133.1 106.469 1143.46 69.3326 1150.95 35.5199C1158.45 1.70734 1162.76 -27.6562 1165.42 -57.0329C1168.07 -86.4096 1168.94 -114.91 1166.79 -154.637C1164.65 -194.364 1159.47 -244.455 1155.93 -272.85C1152.4 -301.245 1150.68 -306.427 1146.28 -317" stroke="white" stroke-opacity="0.26" stroke-width="3" stroke-linecap="round"/>
</svg>
