<svg width="30" height="30" viewBox="0 0 30 30" fill="none" xmlns="http://www.w3.org/2000/svg">
<path fill-rule="evenodd" clip-rule="evenodd" d="M19.6563 27.5V17.8188H22.9063L23.3925 14.0463H19.655V11.6375C19.655 10.545 19.9588 9.8 21.5263 9.8H23.5238V6.425C22.5564 6.32107 21.5841 6.27099 20.6113 6.275C17.7313 6.275 15.76 8.03375 15.76 11.2625V14.0463H12.5V17.8188H15.7588V27.5H3.88C3.1175 27.5 2.5 26.8825 2.5 26.12V3.88C2.5 3.1175 3.1175 2.5 3.88 2.5H26.12C26.8825 2.5 27.5 3.1175 27.5 3.88V26.12C27.5 26.8825 26.8825 27.5 26.12 27.5H19.6563Z" fill="white"/>
</svg>
