<svg width="25" height="25" viewBox="0 0 25 25" fill="none" xmlns="http://www.w3.org/2000/svg">
<path d="M12.7484 10.714V14.9984H19.8406C19.5515 16.8375 17.6961 20.3898 12.7484 20.3898C8.48435 20.3898 5.00076 16.8578 5.00076 12.5C5.00076 8.14214 8.48357 4.61011 12.7484 4.61011C15.1773 4.61011 16.8054 5.63979 17.7328 6.53511L21.1226 3.26792C18.9461 1.23745 16.1258 0.000732422 12.7484 0.000732422C5.83904 0.000732422 0.248413 5.58745 0.248413 12.5007C0.248413 19.414 5.83904 25.0007 12.7484 25.0007C19.9625 25.0007 24.7523 19.9304 24.7523 12.7859C24.7523 11.964 24.6625 11.3375 24.5531 10.7148L12.7484 10.714Z" fill="white"/>
</svg>
