<svg width="31" height="31" viewBox="0 0 31 31" fill="none" xmlns="http://www.w3.org/2000/svg">
<path d="M10.075 2.58325H20.925C25.0584 2.58325 28.4167 5.94159 28.4167 10.0749V20.9249C28.4167 22.9118 27.6274 24.8174 26.2225 26.2223C24.8175 27.6273 22.912 28.4166 20.925 28.4166H10.075C5.94171 28.4166 2.58337 25.0583 2.58337 20.9249V10.0749C2.58337 8.08801 3.37267 6.18247 4.77763 4.77751C6.18259 3.37255 8.08813 2.58325 10.075 2.58325ZM9.81671 5.16659C8.58345 5.16659 7.40071 5.6565 6.52866 6.52854C5.65662 7.40058 5.16671 8.58333 5.16671 9.81659V21.1833C5.16671 23.7537 7.24629 25.8333 9.81671 25.8333H21.1834C22.4166 25.8333 23.5994 25.3433 24.4714 24.4713C25.3435 23.5993 25.8334 22.4165 25.8334 21.1833V9.81659C25.8334 7.24617 23.7538 5.16659 21.1834 5.16659H9.81671ZM22.2813 7.10409C22.7095 7.10409 23.1202 7.27419 23.423 7.57699C23.7258 7.87978 23.8959 8.29046 23.8959 8.71867C23.8959 9.14688 23.7258 9.55756 23.423 9.86035C23.1202 10.1631 22.7095 10.3333 22.2813 10.3333C21.8531 10.3333 21.4424 10.1631 21.1396 9.86035C20.8368 9.55756 20.6667 9.14688 20.6667 8.71867C20.6667 8.29046 20.8368 7.87978 21.1396 7.57699C21.4424 7.27419 21.8531 7.10409 22.2813 7.10409ZM15.5 9.04159C17.2129 9.04159 18.8556 9.72202 20.0668 10.9332C21.2779 12.1444 21.9584 13.7871 21.9584 15.4999C21.9584 17.2128 21.2779 18.8555 20.0668 20.0667C18.8556 21.2778 17.2129 21.9583 15.5 21.9583C13.7872 21.9583 12.1445 21.2778 10.9333 20.0667C9.72214 18.8555 9.04171 17.2128 9.04171 15.4999C9.04171 13.7871 9.72214 12.1444 10.9333 10.9332C12.1445 9.72202 13.7872 9.04159 15.5 9.04159ZM15.5 11.6249C14.4723 11.6249 13.4867 12.0332 12.76 12.7599C12.0333 13.4866 11.625 14.4722 11.625 15.4999C11.625 16.5276 12.0333 17.5133 12.76 18.24C13.4867 18.9667 14.4723 19.3749 15.5 19.3749C16.5278 19.3749 17.5134 18.9667 18.2401 18.24C18.9668 17.5133 19.375 16.5276 19.375 15.4999C19.375 14.4722 18.9668 13.4866 18.2401 12.7599C17.5134 12.0332 16.5278 11.6249 15.5 11.6249Z" fill="white"/>
</svg>
